<svg width="49" height="31" viewBox="0 0 49 31" fill="none" xmlns="http://www.w3.org/2000/svg">
<path d="M44.9167 4.29171H30.625V0.208374H44.9167V4.29171ZM48.4406 24.7084C47.5382 27.3564 44.298 30.8334 38.026 30.8334C31.75 30.8334 26.6662 27.3033 26.6662 19.2469C26.6662 11.264 31.4131 7.16025 37.826 7.16025C44.1184 7.16025 47.9608 10.7985 48.7999 16.1967C48.9592 17.2297 49.0225 18.6222 48.9939 20.5658H32.6054C32.8708 27.1216 39.7165 27.3278 41.9726 24.7084H48.4406ZM32.7483 16.5417H42.8852C42.6708 13.3832 40.5659 12.0112 37.828 12.0112C34.8349 12.0112 33.1791 13.5792 32.7483 16.5417ZM13.2014 30.8089H0V0.251249H14.1957C25.3759 0.416624 25.5882 11.3661 19.749 14.351C26.8153 16.9235 27.0521 30.8089 13.2014 30.8089ZM6.125 12.4584H13.4423C18.5628 12.4584 19.3754 6.33337 12.8053 6.33337H6.125V12.4584ZM13.0483 18.5834H6.125V24.741H12.9462C19.1835 24.741 18.8017 18.5834 13.0483 18.5834Z" fill="black"/>
</svg>
