<svg width="49" height="51" viewBox="0 0 49 51" fill="none" xmlns="http://www.w3.org/2000/svg">
<g clip-path="url(#clip0_45_9)" filter="url(#filter0_d_45_9)">
<g filter="url(#filter1_d_45_9)">
<path d="M16.3333 6.125C10.7045 6.125 6.125 10.7045 6.125 16.3333V32.6667C6.125 38.2955 10.7045 42.875 16.3333 42.875H32.6667C38.2955 42.875 42.875 38.2955 42.875 32.6667V16.3333C42.875 10.7045 38.2955 6.125 32.6667 6.125H16.3333ZM16.3333 10.2083H32.6667C36.0436 10.2083 38.7917 12.9564 38.7917 16.3333V32.6667C38.7917 36.0436 36.0436 38.7917 32.6667 38.7917H16.3333C12.9564 38.7917 10.2083 36.0436 10.2083 32.6667V16.3333C10.2083 12.9564 12.9564 10.2083 16.3333 10.2083ZM34.7083 12.25C34.1669 12.25 33.6475 12.4651 33.2647 12.848C32.8818 13.2309 32.6667 13.7502 32.6667 14.2917C32.6667 14.8332 32.8818 15.3525 33.2647 15.7353C33.6475 16.1182 34.1669 16.3333 34.7083 16.3333C35.2498 16.3333 35.7691 16.1182 36.152 15.7353C36.5349 15.3525 36.75 14.8332 36.75 14.2917C36.75 13.7502 36.5349 13.2309 36.152 12.848C35.7691 12.4651 35.2498 12.25 34.7083 12.25ZM24.5 14.2917C18.8711 14.2917 14.2917 18.8711 14.2917 24.5C14.2917 30.1289 18.8711 34.7083 24.5 34.7083C30.1289 34.7083 34.7083 30.1289 34.7083 24.5C34.7083 18.8711 30.1289 14.2917 24.5 14.2917ZM24.5 18.375C27.8769 18.375 30.625 21.1231 30.625 24.5C30.625 27.8769 27.8769 30.625 24.5 30.625C21.1231 30.625 18.375 27.8769 18.375 24.5C18.375 21.1231 21.1231 18.375 24.5 18.375Z" fill="#ED8000"/>
</g>
</g>
<defs>
<filter id="filter0_d_45_9" x="-4" y="0" width="57" height="57" filterUnits="userSpaceOnUse" color-interpolation-filters="sRGB">
<feFlood flood-opacity="0" result="BackgroundImageFix"/>
<feColorMatrix in="SourceAlpha" type="matrix" values="0 0 0 0 0 0 0 0 0 0 0 0 0 0 0 0 0 0 127 0" result="hardAlpha"/>
<feOffset dy="4"/>
<feGaussianBlur stdDeviation="2"/>
<feComposite in2="hardAlpha" operator="out"/>
<feColorMatrix type="matrix" values="0 0 0 0 0 0 0 0 0 0 0 0 0 0 0 0 0 0 0.1 0"/>
<feBlend mode="normal" in2="BackgroundImageFix" result="effect1_dropShadow_45_9"/>
<feBlend mode="normal" in="SourceGraphic" in2="effect1_dropShadow_45_9" result="shape"/>
</filter>
<filter id="filter1_d_45_9" x="2.125" y="6.125" width="44.75" height="44.75" filterUnits="userSpaceOnUse" color-interpolation-filters="sRGB">
<feFlood flood-opacity="0" result="BackgroundImageFix"/>
<feColorMatrix in="SourceAlpha" type="matrix" values="0 0 0 0 0 0 0 0 0 0 0 0 0 0 0 0 0 0 127 0" result="hardAlpha"/>
<feOffset dy="4"/>
<feGaussianBlur stdDeviation="2"/>
<feComposite in2="hardAlpha" operator="out"/>
<feColorMatrix type="matrix" values="0 0 0 0 0 0 0 0 0 0 0 0 0 0 0 0 0 0 0.1 0"/>
<feBlend mode="normal" in2="BackgroundImageFix" result="effect1_dropShadow_45_9"/>
<feBlend mode="normal" in="SourceGraphic" in2="effect1_dropShadow_45_9" result="shape"/>
</filter>
<clipPath id="clip0_45_9">
<rect width="49" height="49" fill="white"/>
</clipPath>
</defs>
</svg>
