<svg width="37" height="37" viewBox="0 0 37 37" fill="none" xmlns="http://www.w3.org/2000/svg">
<path d="M10.3333 0.125C4.70446 0.125 0.125 4.70446 0.125 10.3333V26.6667C0.125 32.2955 4.70446 36.875 10.3333 36.875H26.6667C32.2955 36.875 36.875 32.2955 36.875 26.6667V10.3333C36.875 4.70446 32.2955 0.125 26.6667 0.125H10.3333ZM10.3333 4.20833H26.6667C30.0436 4.20833 32.7917 6.95642 32.7917 10.3333V26.6667C32.7917 30.0436 30.0436 32.7917 26.6667 32.7917H10.3333C6.95642 32.7917 4.20833 30.0436 4.20833 26.6667V10.3333C4.20833 6.95642 6.95642 4.20833 10.3333 4.20833ZM28.7083 6.25C28.1669 6.25 27.6475 6.4651 27.2647 6.84799C26.8818 7.23088 26.6667 7.75018 26.6667 8.29167C26.6667 8.83315 26.8818 9.35246 27.2647 9.73534C27.6475 10.1182 28.1669 10.3333 28.7083 10.3333C29.2498 10.3333 29.7691 10.1182 30.152 9.73534C30.5349 9.35246 30.75 8.83315 30.75 8.29167C30.75 7.75018 30.5349 7.23088 30.152 6.84799C29.7691 6.4651 29.2498 6.25 28.7083 6.25ZM18.5 8.29167C12.8711 8.29167 8.29167 12.8711 8.29167 18.5C8.29167 24.1289 12.8711 28.7083 18.5 28.7083C24.1289 28.7083 28.7083 24.1289 28.7083 18.5C28.7083 12.8711 24.1289 8.29167 18.5 8.29167ZM18.5 12.375C21.8769 12.375 24.625 15.1231 24.625 18.5C24.625 21.8769 21.8769 24.625 18.5 24.625C15.1231 24.625 12.375 21.8769 12.375 18.5C12.375 15.1231 15.1231 12.375 18.5 12.375Z" fill="black"/>
</svg>
