<svg width="37" height="37" viewBox="0 0 37 37" fill="none" xmlns="http://www.w3.org/2000/svg">
<path d="M4.20833 0.125C1.95229 0.125 0.125 1.95229 0.125 4.20833V32.7917C0.125 35.0477 1.95229 36.875 4.20833 36.875H32.7917C35.0477 36.875 36.875 35.0477 36.875 32.7917V4.20833C36.875 1.95229 35.0477 0.125 32.7917 0.125H4.20833ZM4.20833 4.20833H32.7917V32.7917H4.20833V4.20833ZM9.88273 6.896C8.13302 6.896 7.08342 7.94781 7.08342 9.34839C7.08342 10.749 8.13315 11.7968 9.70728 11.7968C11.457 11.7968 12.5066 10.749 12.5066 9.34839C12.5066 7.94781 11.4569 6.896 9.88273 6.896ZM7.22298 14.4167V28.7083H12.375V14.4167H7.22298ZM16.6258 14.4167V28.7083H21.7778V20.8966C21.7778 18.5711 23.437 18.2368 23.9351 18.2368C24.4333 18.2368 25.7655 18.7365 25.7655 20.8966V28.7083H30.75V20.8966C30.75 16.411 28.7568 14.4167 26.2639 14.4167C23.771 14.4167 22.4414 15.2467 21.7778 16.4105V14.4167H16.6258Z" fill="black"/>
</svg>
